<svg version="1" xmlns="http://www.w3.org/2000/svg" width="933.333" height="933.333" viewBox="0 0 700.000000 700.000000"><path d="M46.5 132.2c1 4.6 14.2 32.6 47 100.3 4.8 9.9 11.1 22.9 14 29 4.9 10.3 9.4 19.6 28.1 58.2 4.2 8.7 9.8 20.3 12.4 25.8 2.6 5.5 8.4 17.4 12.8 26.5 4.4 9.1 10 20.8 12.5 26 10.2 21.5 25.8 53.8 45.2 93.5 10.3 21.2 20.9 42.9 32.2 66.3l7 14.3 14.9-15.4c8.2-8.4 20.8-21.6 27.9-29.1 7.2-7.6 15-16 17.5-18.6 2.5-2.6 10.4-10.9 17.5-18.5 7.2-7.6 15.1-15.9 17.8-18.6 2.6-2.7 4.7-5.2 4.7-5.5 0-.9-3.5-8.4-25.2-53.4-11.2-23-20.6-42.7-25.8-53.5-5.6-11.8-16-33.3-25.8-53.5-3.8-8-10-20.8-13.7-28.5-3.7-7.7-10.4-21.4-14.8-30.5-4.3-9.1-10.1-21-12.7-26.5-2.6-5.5-8.5-17.7-13-27-8.7-18-15-31-24.8-51.7l-6-12.6H45.9l.6 3zM368.7 129.6c-.1.1-5.1.4-11 .8-6 .3-11.3.9-11.9 1.2-2.1 1.3 1.5 9.6 30.7 69.9 4.3 8.8 10.8 22.3 14.5 30 3.7 7.7 11.1 23 16.5 34 5.3 11 11.9 24.5 14.5 30 2.6 5.5 10.2 21.2 16.9 34.9 6.6 13.6 12.1 25 12.1 25.1 0 .1 4.3 9.2 9.6 20.1 9.5 19.6 16.3 33.7 28.8 59.6 14.6 30.5 17.8 37.2 26.6 55.3 5.1 10.4 10.5 21.7 12 25 3.7 8.1 20.1 40.9 23.1 46.4 1.3 2.4 3.5 5.5 4.8 6.9l2.4 2.6 2.1-3c3.4-4.7 18.6-20.9 59.1-62.9 6.6-6.9 19-20 24.1-25.6 5.5-6 9.4-12.3 9.4-15.3 0-2.1-1.5-6.5-4-12.1-6.3-13.8-16-34.5-20.8-44.5-3.3-6.9-8.4-17.7-11.4-24-3.1-6.3-8.7-18-12.5-26-7.5-15.4-14.6-30.2-24.8-51.5-13.5-28.2-18.6-38.7-26.5-55-4.5-9.4-9.5-19.7-11-23-1.5-3.3-6.4-13.6-10.9-22.9-4.5-9.3-8.1-17-8.1-17.1 0-.2-12.6-26.5-23.3-48.7l-5.2-10.7-62.8.2c-34.6.1-62.9.2-63 .3z"/></svg>